<svg viewBox="0 0 48 48" fill="none" xmlns="http://www.w3.org/2000/svg">
  <defs>
    <linearGradient id="g" x1="0" y1="0" x2="48" y2="48" gradientUnits="userSpaceOnUse">
      <stop stop-color="#6366f1"/><stop offset="0.55" stop-color="#8b5cf6"/><stop offset="1" stop-color="#d946ef"/>
    </linearGradient>
  </defs>
  <rect x="2" y="2" width="44" height="44" rx="12" fill="url(#g)"/>
  <path d="M17.5 13c-3 0-3 4-3 6 0 1.6-.9 2.4-2 2.4 1.1 0 2 .8 2 2.4 0 2 0 6 3 6" stroke="#fff" stroke-width="2.2" stroke-linecap="round" stroke-linejoin="round" fill="none"/>
  <path d="M30.5 13c3 0 3 4 3 6 0 1.6.9 2.4 2 2.4-1.1 0-2 .8-2 2.4 0 2 0 6-3 6" stroke="#fff" stroke-width="2.2" stroke-linecap="round" stroke-linejoin="round" fill="none"/>
  <path d="M25.6 14.5 21 24h3.2l-1.8 9 6.6-11h-3.4l2-7.5z" fill="#fff"/>
</svg>
